<svg xmlns="http://www.w3.org/2000/svg" viewBox="0 0 92.2 104.7"><defs><style>.p{fill:#4ed3f3;}.d{fill:#14376f;}</style></defs><g><path class="p" d="M67,71.2H25.2A4.23,4.23,0,0,1,21,67V60.7H71.3V67A4.31,4.31,0,0,1,67,71.2Z"/><path class="d" d="M83.8,104.7H8.4A8.47,8.47,0,0,1,0,96.2V8.5A8.47,8.47,0,0,1,8.4,0H58.7a4.23,4.23,0,0,1,4.2,4.2,4.23,4.23,0,0,1-4.2,4.2H8.4V96.3l75.4.1V34.2a4.2,4.2,0,1,1,8.4,0V96.3A8.39,8.39,0,0,1,83.8,104.7Z"/><path class="d" d="M44,51.3A4.34,4.34,0,0,1,41,50a4.23,4.23,0,0,1,.1-5.9L84,3.3a4.23,4.23,0,0,1,5.9.1,4.23,4.23,0,0,1-.1,5.9L46.9,50.2A4.56,4.56,0,0,1,44,51.3Z"/></g></svg>
