<svg xmlns="http://www.w3.org/2000/svg" viewBox="0 0 85.37 111.7"><defs><style>.p{fill:#14376f;}.d{fill:#4ed3f3;}</style></defs><g><path class="p" d="M60.37,111.7c-19.1,0-37.6-13.2-50.2-36.8-14.9-27.8-13.3-56.3,4-69.3,5.7-4.3,13.3-6.3,19.5-5.1,7.8,1.5,13.4,15.9,15.4,22,5.1,15.4,2,18.8,1,19.9-1.5,1.6-4.9,3.4-14,7.3,2.6,7.1,8.1,16.1,11,18.8a.35.35,0,0,0,.2-.1c8.3-4.1,13.5-6.2,16.9-5.6,10.1,1.8,21.2,24.7,21.2,33.5,0,7.1-7.6,12.1-12.4,13.5A42.34,42.34,0,0,1,60.37,111.7ZM30.07,8.8a19.22,19.22,0,0,0-10.7,3.7C8.07,21,2.77,42.8,17.77,70.8c10.5,19.5,29.8,37.8,52.6,30.7,3.2-1,6.3-3.9,6.3-5.3,0-7.4-9.9-23.9-14-25-1.1.1-4,1-11.7,4.8-2.5,1.2-3,1.5-4.2,1.5h0c-8.6,0-18.9-23.1-20.3-29.3-.8-3.6,2-4.8,4.9-6,6.3-2.7,10.3-4.5,11.8-5.5,1-6.4-7.8-26.4-11.4-27.8A8.62,8.62,0,0,0,30.07,8.8Z"/><path class="d" d="M74.27,41.3l-10.2-3.7c4.2-11.5,1.7-22.1-6.8-29.3L64.17,0C76.27,10.1,80,25.6,74.27,41.3Z"/></g></svg>
