<svg xmlns="http://www.w3.org/2000/svg" viewBox="0 0 98.79 111.68"><defs><style>.p{fill:#14376f}.d{fill:#4ed3f3}</style></defs><g><path class="p" d="M90.16 111.68H8.63A8.62 8.62.0 0 1 0 103.09V85.47A8.62 8.62.0 0 1 2.9 79L26.69 58a41.33 41.33.0 0 1-9.08-20.59c-.54-5.35-.9-18.81 7.55-28.16C30.72 3.11 38.84.0 49.32.0 60.41.0 68.91 3.29 74.59 9.79c8.68 9.92 7.59 23.77 7.06 27.77a38.76 38.76.0 0 1-9.32 20.76L95.87 79h0a8.6 8.6.0 0 1 2.91 6.45v17.61A8.62 8.62.0 0 1 90.16 111.68zM49.32 8.59c-7.94.0-13.93 2.16-17.78 6.43-6.14 6.79-5.81 17.32-5.38 21.54.47 4.71 3.82 13.75 9.51 18.21A4.32 4.32.0 0 1 37.31 58a4.26 4.26.0 0 1-1.45 3.34L8.59 85.47v17.62H90.16V85.48L63.09 61.63A4.29 4.29.0 0 1 63.32 55c6-4.57 9-12.59 9.81-18.57.3-2.21 1.45-13.59-5-21C64.15 10.9 57.82 8.59 49.32 8.59z"/><path class="d" d="M54.77 96.64H44V75.17a4.3 4.3.0 0 1 4.29-4.3h2.15a4.31 4.31.0 0 1 4.3 4.3V96.64z"/></g></svg>
