<?xml version="1.0" encoding="utf-8"?>
<svg version="1.1" xmlns="http://www.w3.org/2000/svg" xmlns:xlink="http://www.w3.org/1999/xlink" x="0px" y="0px" viewBox="0 0 380 100" style="enable-background:new 0 0 380 100;" xml:space="preserve">
<style type="text/css">
	.st0{fill:#1A2C5F;}
	.st1{fill:#FFFFFF;}
	.st2{font-family:'Impact';}
	.st3{font-size:52.92px;}
	.st4{fill:#ED2028;}
</style>
<rect id="camelway.com-1" x="100" y="0" class="st0" width="280" height="100"/>
<text id="CAMELWAY" transform="matrix(1 0 0 1 123.4043 70.6935)" class="st1 st2 st3">CAMELWAY</text>
<g>
	<rect id="camelway.com-2" x="0" y="0" class="st4" width="100" height="100"/>
	<g>
		<path class="st1" d="M84.9,51.5c0,2.6-0.5,5.2-1.2,7.8c-0.1-0.3-0.2-0.5-0.4-0.8c-0.7-1.5-1.4-3-2.1-4.5c-1.1-2.4-2.2-4.7-3.2-7.1
			c-0.7-1.5-1.3-2.9-2-4.4c-1-2.2-2.1-4.5-3.1-6.7c-0.8-1.7-1.5-3.3-2.3-5c-0.7-1.4-1.3-2.9-2-4.3c-0.3-0.7-0.7-1.5-1-2.2
			c-0.1-0.2-0.2-0.2-0.3-0.2c-0.9,0-1.8,0-2.7,0c-1.3,0-2.5,0-3.8-0.1c-1.2,0-2.5,0-3.7-0.1c-1.3,0-2.5,0-3.8-0.1
			c-1.2,0-2.5,0-3.7-0.1c-1.3,0-2.5,0-3.8-0.1c-1.2,0-2.4,0-3.7-0.1c-1.3,0-2.6,0-3.8-0.1c-1.2,0-2.5,0-3.7,0c-0.3,0-0.5,0-0.8,0
			c-0.2,0-0.2,0-0.3,0.2c-0.3,0.7-0.6,1.3-0.9,2c-1,2-2,4.1-2.9,6.1c-1,2-2,4.1-2.9,6.1c-0.9,1.8-1.7,3.6-2.6,5.4
			c-0.6,1.3-1.2,2.5-1.8,3.8c-0.7,1.4-1.3,2.7-2,4.1c-0.8,1.7-1.6,3.4-2.4,5c-0.5,1-1,2.1-1.5,3.1c0,0,0,0.1-0.1,0.2
			c-0.1,0-0.1-0.1-0.1-0.1c-0.4-1.3-0.6-2.6-0.8-4c-0.1-0.9-0.3-1.9-0.3-2.8c0-0.6-0.1-1.1-0.1-1.7c0-0.1,0-0.2,0-0.2
			c0-0.3,0-0.7,0-1c0.1-0.3,0-0.6,0-0.9c0.1-0.4,0-0.8,0.1-1.2c0.1-1.1,0.2-2.2,0.4-3.3c0.3-1.9,0.8-3.7,1.4-5.5
			c0.7-1.9,1.5-3.8,2.5-5.6c1.1-2.1,2.5-4,4-5.8c0.9-1.1,2-2.1,3-3.1c1.4-1.2,2.8-2.4,4.4-3.4c2.2-1.5,4.6-2.7,7.1-3.6
			c2.3-0.8,4.6-1.4,7-1.8c1-0.1,2-0.3,2.9-0.3c0.4,0,0.7,0,1.1,0c0.7,0,1.5,0,2.2,0c2.9,0,5.7,0.5,8.5,1.3c2.3,0.6,4.5,1.5,6.6,2.6
			c2.2,1.2,4.3,2.5,6.2,4.1c1.1,0.9,2.2,2,3.2,3c1.5,1.6,2.8,3.4,4,5.2c1.2,1.8,2.1,3.7,2.9,5.7c1,2.6,1.8,5.3,2.1,8.1
			c0.2,1.2,0.3,2.5,0.2,3.7C84.9,49.9,85,50.7,84.9,51.5z"/>
		<path class="st1" d="M51.2,15.3C51.2,15.3,51.2,15.3,51.2,15.3c-0.8,0.1-1.6,0.1-2.3,0c0,0,0,0,0,0C49.6,15.3,50.4,15.3,51.2,15.3
			z"/>
		<path class="st1" d="M84.9,49.1C84.9,49.1,84.9,49.1,84.9,49.1c0,0.8,0,1.6,0,2.3l0,0l0,0C84.9,50.7,84.9,49.9,84.9,49.1z"/>
		<path class="st1" d="M15,48.8C15.1,48.9,15.1,48.9,15,48.8c0.1,0.3,0.1,0.5,0.1,0.7c0,0.1,0,0.1-0.1,0.2C15,49.5,15,49.2,15,48.8z
			"/>
		<path class="st1" d="M37.5,82.9c-7-2.8-12.6-7.3-16.7-13.6c0.1,0,0.2,0,0.2,0c5.4,0,10.8,0,16.2,0c0,0,0.1,0,0.1,0
			c0.1,0,0.2,0,0.2,0.1c0,0.1,0,0.3,0,0.4c0,4.2,0,8.5,0,12.7C37.5,82.6,37.5,82.7,37.5,82.9z"/>
		<path class="st1" d="M63.3,82.5c0-0.1,0-0.2,0-0.3c0-4.2,0-8.4,0-12.6c0-0.4,0-0.4,0.4-0.4c5.1,0,10.2,0,15.3,0c0.1,0,0.2,0,0.3,0
			c-1.6,2.5-3.5,4.7-5.7,6.7C70.6,78.8,67.2,80.9,63.3,82.5z"/>
		<path class="st1" d="M82.5,63c0-0.2-0.2-0.4-0.2-0.6c-1.1-2.4-2.1-4.8-3.2-7.1c-1.1-2.5-2.3-5-3.4-7.6c-1.3-2.9-2.6-5.8-3.9-8.7
			c-1-2.2-2-4.4-3-6.7c-0.8-1.8-1.6-3.6-2.5-5.5c-0.1-0.2-0.1-0.2-0.3-0.2c-2,0-4.1,0-6.1,0c-2.2,0-4.5,0-6.7-0.1
			c-2.3,0-4.7,0-7-0.1c-2,0-3.9,0-5.9,0c-0.2,0-0.3,0-0.5,0c-1.3,0-2.7,0-4,0c-0.1,0-0.2,0-0.2,0.1c-0.2,0.3-0.3,0.7-0.5,1
			c-1.1,2.5-2.3,4.9-3.4,7.4c-0.8,1.6-1.5,3.2-2.3,4.9c-1.1,2.5-2.3,4.9-3.4,7.4c-0.7,1.6-1.5,3.2-2.2,4.8c-0.9,2-1.8,4-2.8,6
			c-0.9,1.9-1.7,3.7-2.6,5.6C18.2,63.8,18,64,18,64.2c0,0.2,0.1,0.4,0.2,0.5c0.3,0.6,0.6,1.2,0.9,1.8c0.1,0.1,0.1,0.2,0.3,0.2
			c0.1,0,0.1,0,0.2,0c6.7,0,13.4,0,20.2,0c0.4,0,0.3,0,0.3,0.3c0,2.8,0,5.6,0,8.4c0,2.7,0,5.4,0,8.1c0,0.3,0,0.3,0.2,0.3
			c1.3,0.4,2.6,0.7,3.9,0.9c0.3,0.1,0.3,0,0.3-0.3c0-2.5,0-4.9,0-7.4c0-4.7,0-9.3,0-14c0-0.3,0-0.3-0.3-0.3c-0.9,0-1.8,0-2.6,0
			c-3.1,0-6.2,0-9.2,0c-2.6,0-5.1,0-7.7,0c-0.2,0-0.4,0-0.6,0c0-0.1,0-0.2,0.1-0.2c1.1-2.8,2.1-5.5,3.2-8.3
			c1.3-3.4,2.6-6.7,3.9-10.1c0.8-2.2,1.7-4.3,2.5-6.5c0.5-1.4,1-2.7,1.6-4.1c0.4-1,0.8-2,1.2-3.1c0.1-0.2,0.1-0.2,0.3-0.2
			c0.5,0,1,0,1.5,0c0.6,0,1.1,0,1.7,0c0.1,0,0.2,0,0.2,0c-3.7,9.7-7.3,19.3-11,29c0.1,0.1,0.2,0,0.3,0c1.7,0,3.4,0,5,0
			c1.7,0,3.3,0,5,0c0.2,0,0.2-0.1,0.3-0.2c0.4-0.8,0.7-1.6,1.1-2.4c1.1-2.3,2.2-4.7,3.3-7c0.1-0.2,0.2-0.5,0.4-0.8
			c1.6,3.5,3.2,6.9,4.8,10.3c2.1-3.4,4.2-6.7,6.3-10c0.1,0,0.1,0.1,0.1,0.1c0.5,1.2,1,2.4,1.4,3.5c0.8,2,1.6,4,2.4,6
			c0.1,0.3,0.1,0.3,0.5,0.3c2.8,0,5.6,0,8.4,0c1.2,0,2.3,0,3.5,0c0.4,0,0.4,0.1,0.2-0.3c-0.1-0.4-0.3-0.7-0.4-1.1
			c-0.9-2.4-1.9-4.7-2.8-7.1c-0.9-2.2-1.7-4.4-2.6-6.6c-0.7-1.8-1.4-3.5-2.1-5.3c-1-2.6-2.1-5.3-3.1-7.9c-0.1-0.3-0.2-0.5-0.3-0.8
			c0.1,0,0.2,0,0.3,0c0.8,0,1.5,0,2.3,0c0,0,0.1,0,0.1,0c0.1,0,0.2,0,0.2,0.1c0,0,0,0.1,0.1,0.1c0.5,1.1,1,2.3,1.5,3.4
			c1.3,3.1,2.6,6.2,4,9.2c1,2.3,1.9,4.5,2.9,6.8c1,2.2,1.9,4.5,2.9,6.7c0.8,1.8,1.6,3.6,2.3,5.4c0,0.1,0.1,0.2,0.1,0.4
			c-0.1,0-0.2,0-0.2,0c-5.4,0-10.7,0-16.1,0c-1.6,0-3.1,0-4.7,0c-0.4,0-0.3,0-0.3,0.3c0,3.5,0,6.9,0,10.4c0,3.8,0,7.5,0,11.3
			c0,0.1,0,0.2,0,0.2c1.5-0.3,2.9-0.6,4.3-1.1c0.3-0.1,0.2,0,0.2-0.3c0-5.4,0-10.8,0-16.2c0-0.4-0.1-0.4,0.4-0.4
			c6.4,0,12.9,0,19.3,0c0.1,0,0.2,0,0.3,0c0.1,0,0.2,0,0.2-0.1c0.5-0.9,0.9-1.9,1.4-2.9C82.4,63.5,82.5,63.3,82.5,63z M50.2,37.1
			C50.2,37.1,50.2,37.1,50.2,37.1c-0.8-2.3-1.5-4.5-2.2-6.8c1.6,0,3.2,0,4.8,0C52,32.5,51.1,34.8,50.2,37.1z"/>
	</g>
</g>
</svg>
