<svg xmlns="http://www.w3.org/2000/svg" viewBox="0 0 170.59 48.69"><defs><style>.cls-1{fill:#f6f5f5;}.cls-12,.cls-2{fill:#e11d26;}.cls-11,.cls-2,.cls-3,.cls-5{opacity:0.1;}.cls-2,.cls-3,.cls-5,.cls-8{isolation:isolate;}.cls-3{fill:#ff8a03;}.cls-4{fill:#ced7e7;}.cls-6{fill:#fed253;}.cls-7{fill:#ffa2a2;}.cls-8{opacity:0.05;}.cls-9{fill:#63667e;}.cls-10{fill:#896363;}.cls-13{fill:#ff353f;}</style></defs><title>咨询小图标</title><g id="图层_2" data-name="图层 2"><g id="ad467010-4b2c-4db1-84f0-cd2022f75deb"><polygon class="cls-1" points="159.72 48.69 0 48.69 10.87 20.61 170.59 20.61 159.72 48.69"/><rect class="cls-2" x="123.05" y="38.43" width="11.1" height="1.44"/><rect class="cls-3" x="123.05" y="42.79" width="11.1" height="1.44"/><rect class="cls-3" x="147.47" y="19.98" width="2.06" height="2.06"/><rect class="cls-3" x="147.47" y="24.77" width="2.06" height="2.06"/><rect class="cls-3" x="147.47" y="29.57" width="2.06" height="2.06"/><rect class="cls-3" x="147.47" y="34.36" width="2.06" height="2.06"/><rect class="cls-3" x="147.47" y="39.16" width="2.06" height="2.06"/><rect class="cls-3" x="147.47" y="43.95" width="2.06" height="2.06"/><path class="cls-3" d="M154.3,46.35l-.2.11v0h-.58v.32l-.12.06v-.38h-.58v.63l-.13,0v-.67h-.61v.88l-.13,0v-1Z"/><path class="cls-3" d="M139.62,33.67s.6,1.66-.65,1.81a.28.28,0,0,1-.34-.06s.08,0,0-.19a.55.55,0,0,1-.06-.18.37.37,0,0,1,0-.25h0a1.39,1.39,0,0,1,.77-.95s.13-.19.18-.19l0,.32a.51.51,0,0,0-.38.09s.37-.1.38,0l0,.17a.84.84,0,0,0-.63.14s.43-.18.62-.08l-.06.23a.94.94,0,0,0-.69.14,1.35,1.35,0,0,1,.67-.09l-.08.22a1,1,0,0,0-.64.11s.54-.14.61-.06a.89.89,0,0,1-.14.25s-.3-.05-.42.07.37-.06.39,0a1.3,1.3,0,0,1-.35.3.92.92,0,0,0,.38-.26.56.56,0,0,1,0,.28s.16-.08.1-.34a1.4,1.4,0,0,0,.14-.22,1,1,0,0,1,.07.42.47.47,0,0,0-.05-.48l.1-.22a1.29,1.29,0,0,1,.13.48.59.59,0,0,0-.11-.54l.06-.23a2.35,2.35,0,0,1,.17.44.69.69,0,0,0-.16-.51l0-.16s.11.2.13.26,0,.06,0,.06a.71.71,0,0,0-.16-.39A1.88,1.88,0,0,1,139.62,33.67Z"/><path class="cls-3" d="M142,18s.6,1.66-.64,1.81a.32.32,0,0,1-.35-.06s.09,0,0-.19L141,19.4a.39.39,0,0,1,0-.26h0a1.36,1.36,0,0,1,.78-.94s.12-.19.17-.2l0,.32a.57.57,0,0,0-.38.09s.37-.1.38,0l0,.17a.89.89,0,0,0-.63.14s.43-.18.62-.08l-.06.24a.92.92,0,0,0-.69.13,1.31,1.31,0,0,1,.68-.08l-.09.22a.89.89,0,0,0-.64.11s.55-.15.62-.06a1.2,1.2,0,0,1-.15.24s-.3,0-.42.07a1.67,1.67,0,0,1,.39,0,1.3,1.3,0,0,1-.35.3.84.84,0,0,0,.38-.26.47.47,0,0,1-.05.28s.16-.08.1-.34a1,1,0,0,0,.14-.22,1.12,1.12,0,0,1,.08.43.49.49,0,0,0-.05-.49l.09-.22a1.46,1.46,0,0,1,.14.48.62.62,0,0,0-.12-.54l.06-.23a1.49,1.49,0,0,1,.17.44.69.69,0,0,0-.16-.51l0-.16s.11.2.13.26,0,.06,0,.06a.86.86,0,0,0-.16-.38A1.86,1.86,0,0,1,142,18Z"/><path class="cls-3" d="M137.54,27.06s-.47,1.7-1.57,1.11a.3.3,0,0,1-.25-.25s.08,0,.11-.15a.6.6,0,0,1,.06-.19.38.38,0,0,1,.16-.19h0a1.43,1.43,0,0,1,1.19-.33.79.79,0,0,1,.25,0l-.22.24a.52.52,0,0,0-.36-.15s.36.13.33.18l-.12.13a.84.84,0,0,0-.59-.25s.45.1.55.29l-.18.16a.93.93,0,0,0-.65-.29,1.36,1.36,0,0,1,.61.32l-.21.13a.91.91,0,0,0-.58-.28s.53.2.54.31a.85.85,0,0,1-.26.11s-.22-.21-.39-.18c0,0,.34.17.33.21a1.45,1.45,0,0,1-.45,0,.9.9,0,0,0,.46,0,.48.48,0,0,1-.2.2s.17,0,.27-.22a1.43,1.43,0,0,0,.25-.1,1.14,1.14,0,0,1-.19.39.48.48,0,0,0,.24-.42l.21-.13a1.5,1.5,0,0,1-.17.47s.19-.11.22-.5l.18-.16A1.91,1.91,0,0,1,137,28a.74.74,0,0,0,.17-.51l.11-.12s0,.22-.05.28,0,.08,0,.08a.75.75,0,0,0,.09-.41S137.52,27.05,137.54,27.06Z"/><path class="cls-4" d="M129.65,45.67a5,5,0,0,1-3.05-5.88l4.88-1.26,1.13,3.76Z"/><path class="cls-5" d="M132.61,42.29l-3,3.38a5,5,0,0,1-3.05-5.88Z"/><path class="cls-6" d="M148.74,8.45s-.52.84-1.22.42,0-1.58,0-1.58S148.84,7.1,148.74,8.45Z"/><path class="cls-5" d="M147.52,8.87a.71.71,0,0,0,.57.1,1.13,1.13,0,0,0,.56-.4.94.94,0,0,0,.09-.12,1,1,0,0,0-.32-.93h0a1.25,1.25,0,0,0-.85-.24h-.08v0a1.46,1.46,0,0,0-.11.24C147.21,7.91,147,8.58,147.52,8.87Z"/><path class="cls-7" d="M129.27,39.58l-2.66.21-5,.05,3.91,4.81a5.48,5.48,0,0,1,1.49.24,29.84,29.84,0,0,0,3.84.08l.58-2.47Z"/><path class="cls-8" d="M129.27,39.58l-2.66.21-5,.05,3.91,4.81a5.48,5.48,0,0,1,1.49.24,29.84,29.84,0,0,0,3.84.08l.58-2.47Z"/><path class="cls-4" d="M132,26.65l-.61,1.05-.14,1.83a10.7,10.7,0,0,1-.75,2,4.87,4.87,0,0,0-.46,1.67,6.32,6.32,0,0,1-.3,1.38,12.1,12.1,0,0,0-.38,2s-1.42,2.86-2.72,3.21c0,0,6.42,2.1,3.05,5.87,0,0,2.4.59,3-.08s2-10.64,2-10.64l-.46-8.41Z"/><path class="cls-8" d="M132,26.65l-.61,1.05-.14,1.83a10.7,10.7,0,0,1-.75,2,4.87,4.87,0,0,0-.46,1.67,6.32,6.32,0,0,1-.3,1.38,12.1,12.1,0,0,0-.38,2s-1.42,2.86-2.72,3.21c0,0,6.42,2.1,3.05,5.87,0,0,2.4.59,3-.08s2-10.64,2-10.64l-.46-8.41Z"/><path class="cls-7" d="M139.74,16.41a5.77,5.77,0,0,1-.15,2.8l1,2.86s7.59-4.23,6.95-5.25a8,8,0,0,1-.39-3.34c0-.93.09-1.68.09-1.68s-9.32.92-8.08,3A4.82,4.82,0,0,1,139.74,16.41Z"/><path class="cls-5" d="M139.16,14.85a4.82,4.82,0,0,1,.58,1.56,6.29,6.29,0,0,0,7.41-2.93c0-.93.09-1.68.09-1.68S137.92,12.72,139.16,14.85Z"/><path class="cls-7" d="M135.39,10.27a6.28,6.28,0,1,0,11.39-3.63,4.39,4.39,0,0,0-.28-.36,6.11,6.11,0,0,0-2-1.63h0a6.53,6.53,0,0,0-1.34-.49,6.29,6.29,0,0,0-7.57,4.67l-.09.43A5.72,5.72,0,0,0,135.39,10.27Z"/><path class="cls-4" d="M132.91,36.08a8.2,8.2,0,0,1-.2,2.35l0,.12s0,.11,0,.16c-.08.4-.17.79-.26,1.16s-.16.67-.23.92-.17.62-.17.62,0,.24,0,.61c0,.22,0,.48,0,.77,0,.09,0,.17,0,.26s0,.32,0,.48v.16c0,.18,0,.36,0,.54s0,.49,0,.73v.92A5.59,5.59,0,0,0,132,47s0,.08,0,.13a5.78,5.78,0,0,1,.14.7l.12-.1.72-.6a10.57,10.57,0,0,1,1.28-.91l.09-.06.25-.13a5.38,5.38,0,0,1,.55-.24,7,7,0,0,1,2.69-.42l.61.24.48.14.07,0,1.49.47c.42.15,4,.9,4,.9a5.8,5.8,0,0,0,1,.19,13.62,13.62,0,0,0,1.9.39,10.56,10.56,0,0,0,4.33-.34h.05l.09,0,.13,0,.61-.22.13,0,.58-.25.12-.06a6.27,6.27,0,0,0,.58-.29l.2-.11.59-.35c0-.28.05-.47.05-.47l.29-1.43,0-.08.2-1,0-.08.45-2.25v-.07l.21-1,0-.07.45-2.26,0-.07.2-1,0-.07.45-2.26,0-.07.2-1,0-.08.08-.4.12-.62s.4-.56.84-1.23l0-.08.39-.57.12-.18.18-.28,0-.06h0c.63-1,.21-1.42.21-1.42l-.62-.84-.05-.07-.47-.66-.12-.18a2.43,2.43,0,0,1-.14-.2l-.05-.07a8.33,8.33,0,0,1-.68-1.08,9,9,0,0,0-1.24-1.57,7,7,0,0,0-1.1-1c-.46-.24-.65-1-.65-1s-1-.35-1.13-.62a15.4,15.4,0,0,0-2-1.48,8.83,8.83,0,0,1-1.07-.79.49.49,0,0,1-.12-.13c-.11-.19-.81-.35-1.09-.41l-.12,0a2.67,2.67,0,0,0-.43-.57,2.55,2.55,0,0,1-.39-.8c-.13-.37-.23-.73-.23-.73-.22-.73-.65-.51-.65-.51a1.36,1.36,0,0,1,0,.29h0c-.18.89-1.15,1.26-1.66,1.68s-1.46,1.64-2.16,1.88A4.53,4.53,0,0,0,141.89,20v0l-.06.06-.63,0h-.09A.25.25,0,0,1,141,20c-.24-.16-.6-.64-.75-.75a11.07,11.07,0,0,1-.38-2.32h0c-.67-.32-1.39,2.83-1.39,2.83s-1.27.38-1.37.65a1,1,0,0,1-.26.26A14.6,14.6,0,0,1,134.72,22l-.05,0,0,0-.08,0-.11.05h0a1.08,1.08,0,0,0-.3.16l-.08.06a1.44,1.44,0,0,0-.27.28s0,0,0,0h0a2.08,2.08,0,0,0-.15.2,2.48,2.48,0,0,0-.18.31,12.9,12.9,0,0,1-1.46,2.1c-.35.22-.56,2.4-.56,2.4h0l1.18,4.39s.06,1.11.16,2.24C132.75,35,132.82,35.61,132.91,36.08Z"/><path class="cls-9" d="M141.82,20.24a4.36,4.36,0,0,0,1.42.47,1,1,0,0,0,.24,0,5.92,5.92,0,0,0,1.6-.63L144,18.84l-1.36.67-.5.47Z"/><path class="cls-5" d="M135.47,9.26a.48.48,0,0,0,.09.11c.39.37,1.08.22,1.61.13a5.69,5.69,0,0,0,1.34-.38c.38-.16.83-.36,1.16-.13.13.09.22.23.36.31a1,1,0,0,0,.46.08A6.58,6.58,0,0,0,142,9.27c.76-.18,1.54-.62,2.25-.33a2,2,0,0,1,1,1.43,2.43,2.43,0,0,0,.3.83.67.67,0,0,0,.76.31c.41-.17.47-.86,1-.9s.53.52.37.92a5.75,5.75,0,0,0-.55,1.8,6.28,6.28,0,0,0-.36-6.69.66.66,0,0,1-.26-.31s0,0,0,0c0-.21.08-.43.09-.64,0-.53-.55-.9-1.07-1-.35,0-.71,0-1.06,0h0a1.86,1.86,0,0,1-.52-.07,2.5,2.5,0,0,1-.81-.42,6.3,6.3,0,0,0-7.57,4.68,3,3,0,0,0-.09.43Z"/><path class="cls-10" d="M135.34,8.83a.81.81,0,0,0,.22.38c.39.37,1.08.22,1.61.13A5.69,5.69,0,0,0,138.51,9c.38-.16.83-.36,1.16-.13.13.09.22.23.36.31a1,1,0,0,0,.46.08A6.58,6.58,0,0,0,142,9.11c.76-.18,1.54-.62,2.25-.33a2,2,0,0,1,1,1.43,2.36,2.36,0,0,0,.3.83.67.67,0,0,0,.76.31c.41-.17.47-.86,1-.9s.53.52.37.92a4.13,4.13,0,0,0-.52,2.14h.44c-.09-.16.08-.35.26-.41a1.15,1.15,0,0,0,.52-.18.63.63,0,0,0,.12-.5,3.24,3.24,0,0,0-.28-1.11,1,1,0,0,1-.14-.69,1.3,1.3,0,0,1,.16-.31,1.17,1.17,0,0,0,0-1c0-.13-.09-.25-.14-.37a2.05,2.05,0,0,0-.25-.46c-.17-.21-.34-.53-.15-.72s-.05-.09,0-.15,0,0,0,0a.36.36,0,0,0-.05-.22l0,0,0,0a2.22,2.22,0,0,0-.64-.69c-.16-.12-.35-.23-.41-.42s.06-.46.07-.69c0-.53-.55-.9-1.07-1a10.32,10.32,0,0,1-1.58-.09c-.72-.19-1.23-.83-1.89-1.19a2.66,2.66,0,0,0-2.35-.08c-.77.35-1.35,1.06-2.15,1.33a3.41,3.41,0,0,0-.85.29,1.81,1.81,0,0,0-.63.81A9.9,9.9,0,0,0,135.62,7a6,6,0,0,0-.32,1.38A1.43,1.43,0,0,0,135.34,8.83Z"/><g class="cls-11"><path d="M147.59,7.9a.35.35,0,0,1,.06-.28c0,.06.06.1,0,.14A.29.29,0,0,0,147.59,7.9Z"/><path d="M147.65,7.45h0s0,.06,0,.08S147.63,7.49,147.65,7.45Z"/><path d="M135.54,9c.39.37,1.08.22,1.61.13a5.69,5.69,0,0,0,1.34-.38c.38-.16.83-.36,1.16-.13.13.09.22.23.36.3a.88.88,0,0,0,.46.09A7.17,7.17,0,0,0,142,8.93c.76-.18,1.54-.62,2.25-.33a2,2,0,0,1,1,1.43,2.43,2.43,0,0,0,.3.83.65.65,0,0,0,.76.3c.41-.17.47-.85,1-.89s.49.25.46.55a.39.39,0,0,0-.46-.39c-.49,0-.55.73-1,.9a.67.67,0,0,1-.76-.31,2.43,2.43,0,0,1-.3-.83,2,2,0,0,0-1-1.43c-.71-.29-1.49.15-2.25.33a6.58,6.58,0,0,1-1.54.11,1,1,0,0,1-.46-.08c-.14-.08-.23-.22-.36-.31-.33-.23-.78,0-1.16.13a5.69,5.69,0,0,1-1.34.38c-.53.09-1.22.24-1.61-.13a1,1,0,0,1-.26-.81A1,1,0,0,0,135.54,9Z"/><path d="M146.56,5.34s0,.08,0,.11-.07.31-.09.46A2.37,2.37,0,0,1,146.56,5.34Z"/><path d="M148.06,10.59s0,.05,0,.07a.6.6,0,0,1,0-.23,2.85,2.85,0,0,1,.16-.3.88.88,0,0,0,.1-.35.92.92,0,0,1-.1.51C148.16,10.39,148.11,10.49,148.06,10.59Z"/><path d="M147.15,13.33h.43a.18.18,0,0,0,0,.16h-.44a1.62,1.62,0,0,1,0-.38A.82.82,0,0,0,147.15,13.33Z"/><path d="M147.85,12.92c.18-.05.39-.05.52-.18a.47.47,0,0,0,.12-.31.59.59,0,0,1-.12.47c-.13.13-.34.13-.52.18a.47.47,0,0,0-.26.22C147.51,13.15,147.68,13,147.85,12.92Z"/></g><path class="cls-5" d="M134.39,46.18l.26-.13a4.41,4.41,0,0,1,.54-.24,7,7,0,0,1,2.7-.42l.61.24.47.14.08,0s0-.1,0-.15,0-.11,0-.16c.17-1.57.3-3.18.3-3.18V36.64l.08-1.35,0-.6v-.48a.74.74,0,0,0,0-.14h0s0,0,0-.06,0-.17.06-.27c.13-.68.3-1.83.31-2.06s.28-2.17.28-2.17a10.41,10.41,0,0,1,1.11-3.32,9.14,9.14,0,0,0,.38-2.66,3.1,3.1,0,0,1-.09-.78.37.37,0,0,0,0-.11c0-.27,0-.5,0-.5l-.85-.16-.23-.05h0s-.1.19-.19.38l0,.06,0,0a3.51,3.51,0,0,0-.35,1.11,5.93,5.93,0,0,1-.53,1.66c-.06.27-1.23,2.95-1.23,2.95a18.68,18.68,0,0,0-.9,3.05,33,33,0,0,1-.46,3.29l-.53,2.94a18.6,18.6,0,0,0-.59,1.91l-.13.76,0,.14-.34,2-.17,1s-.07.52-.18,1.11a1.1,1.1,0,0,1,0,.16,7.43,7.43,0,0,1-.27,1.13A5.44,5.44,0,0,0,134.39,46.18Z"/><path class="cls-9" d="M134.3,46.24l.09-.06.26-.13a4.41,4.41,0,0,1,.54-.24,7,7,0,0,1,2.7-.42l.61.24.47.14c0-.05,0-.1,0-.16a.68.68,0,0,0,0-.14c.17-1.56.3-3.17.3-3.17V36.64l.08-1.29V34.9l0-.24V34.2h0a.56.56,0,0,0,.05-.18v0l0-.06h0c.13-.63.34-2,.35-2.25s.28-2.17.28-2.17a10.34,10.34,0,0,1,1.11-3.31,9.1,9.1,0,0,0,.37-2.66,5.29,5.29,0,0,1-.09-.9v-.08c0-.23,0-.41,0-.41l-.79-.15-.2,0h-.1s-.1.18-.22.42v0a3.34,3.34,0,0,0-.36,1.15,6.22,6.22,0,0,1-.54,1.66c-.06.26-1.23,2.94-1.23,2.94a18.83,18.83,0,0,0-.9,3.06c0,.43-.46,3.29-.46,3.29l-.53,2.94a17.86,17.86,0,0,0-.59,1.91l-.12.7,0,.15-.27,1.59-.25,1.46s-.07.53-.17,1.11l0,.17a9.47,9.47,0,0,1-.28,1.14A4,4,0,0,0,134.3,46.24Z"/><path class="cls-6" d="M140,.44a5.86,5.86,0,0,0-3.44,2.48,10.74,10.74,0,0,0-1.23,4.67s.05.25,0,.34l-.12.11,0,0-.09.09h0l0,0-.05.05s.28.36.54.36a8,8,0,0,0,1.76-.2,28.11,28.11,0,0,1,3.06-.29s3.6,0,3.72-.1a12,12,0,0,1,2.45-.73l.3,0,.17,0c.26,0,.57.09.87.12a2.66,2.66,0,0,0,.77,0V7.2a4.58,4.58,0,0,1-.44-.78c0-.18-.38-2.7-1.29-3.6a3.63,3.63,0,0,0-1.74-1.63c-1.24-.54-2.48-1-2.48-1"/><path class="cls-8" d="M135,8.24s.28.36.54.36a8,8,0,0,0,1.76-.2,28.11,28.11,0,0,1,3.06-.29s3.6,0,3.72-.1a12,12,0,0,1,2.45-.73l.3,0,0-.23V7a22.67,22.67,0,0,0-6.8-.42c-2.72.46-4.73,1-4.73,1s.05.24,0,.34l-.12.11s0,0,0,0l-.09.09h0l0,0Z"/><path class="cls-5" d="M135.34,8.83a10.63,10.63,0,0,0,1.84-.15,2,2,0,0,0,.34-.06,9.22,9.22,0,0,1,2.59-.24,25.09,25.09,0,0,0,3.76-.12,20.41,20.41,0,0,0,2.4-.63,2.44,2.44,0,0,1,1.09-.09l.32.06c.57.14,1,.45,1,1l.09-.12a1,1,0,0,0-.32-.93h0l0,0a5,5,0,0,0-.77-.17l-.13,0a4.77,4.77,0,0,0-2.7.33,4.27,4.27,0,0,1-1.4.39,48.15,48.15,0,0,0-6.25.35,3.58,3.58,0,0,1-.65.14,2.59,2.59,0,0,1-1.17-.11A1.2,1.2,0,0,0,135.34,8.83Z"/><path class="cls-5" d="M135,8.24s.28.36.54.36a8,8,0,0,0,1.76-.2,28.11,28.11,0,0,1,3.06-.29s3.6,0,3.72-.1a12,12,0,0,1,2.45-.73l.3,0,.17,0a3.2,3.2,0,0,1,.87.12,2.66,2.66,0,0,0,.77,0V7.45a.9.9,0,0,0-.24-.12,6.59,6.59,0,0,0-1.53-.24,4.23,4.23,0,0,0-2.06.39,4.36,4.36,0,0,1-1.41.39,46.44,46.44,0,0,0-6.25.35,4.69,4.69,0,0,1-.65.14A2.7,2.7,0,0,1,135,8.15h0l0,0Z"/><path class="cls-6" d="M148.64,8.56s.9-.69-.27-1.15a5.56,5.56,0,0,0-3.6.15,4.27,4.27,0,0,1-1.4.39,46.44,46.44,0,0,0-6.25.35,4.69,4.69,0,0,1-.65.14,2.72,2.72,0,0,1-1.66-.32c-.08,0-.14-.06-.16,0s0,.55.57.64a8.51,8.51,0,0,0,2-.13l.34-.06a9.22,9.22,0,0,1,2.59-.24,25,25,0,0,0,3.76-.12,20.41,20.41,0,0,0,2.4-.63C147,7.26,148.9,7.51,148.64,8.56Z"/><path class="cls-5" d="M141.67,0A3,3,0,0,0,141,1.34c.07-.11,1-.87,1.41-1.18"/><polygon class="cls-5" points="144.11 5.42 144.42 5.88 143.24 5.84 143.21 5.33 144.11 5.42"/><polygon class="cls-5" points="136.88 5.97 136.75 6.39 135.99 6.51 136.31 6.01 136.88 5.97"/><path class="cls-5" d="M149.84,20c-.08.14-2.74,3.63-3.44,3.53S149.84,20,149.84,20Z"/><path class="cls-5" d="M141,23.17s-.65.62-.55.87S141,23.17,141,23.17Z"/><path class="cls-5" d="M148,27.43s.56,2.65.27,2.74S148,27.43,148,27.43Z"/><path class="cls-5" d="M140.73,37.73a12,12,0,0,1-1,2.12A16.58,16.58,0,0,1,140.73,37.73Z"/><path class="cls-5" d="M131.65,30.54c0,.1.71.65.56.85S131.65,30.54,131.65,30.54Z"/><path class="cls-5" d="M136.88,35.46c0,.07.15,1.48-.11,1.75S136.88,35.46,136.88,35.46Z"/><path class="cls-5" d="M130,42.79l.6.32.67.3.27.12.41.16c.4.16.79.3,1.14.41l.38.13c.61.19,1,.29,1,.29a1.27,1.27,0,0,1,.28,0h.08l.37,0a17.76,17.76,0,0,1,2.7.83c.37.14.61.25.61.25l.47.14.08,0,1.48.47c.42.15,4,.9,4,.9a6.91,6.91,0,0,0,1,.19,19.43,19.43,0,0,0,2.53,0,16.71,16.71,0,0,0,3-.25l.13,0,.5-.09-.1-.14L149.54,44l0,0-2-2.73-.07-.1-.18-.25s-.11-.15-.52-.16h-.16a4.49,4.49,0,0,0-1,.21l-.1,0a14.16,14.16,0,0,1-3.64.31s-1.38-.22-2.47-.36h-.08a9.47,9.47,0,0,0-1.06-.09,11.55,11.55,0,0,1-2.09-.33,1.45,1.45,0,0,1-.61-.25l-.08,0-.26-.21c-.2-.15-.48-.36-.93-.65l-.12-.08-.15-.08a5.84,5.84,0,0,0-1.34-.44,6.72,6.72,0,0,0-1.17-.16h-.06a4,4,0,0,0-2.9.75,1.52,1.52,0,0,0-.3.37,2,2,0,0,0-.11.2,1.88,1.88,0,0,0-.14.42s0,.05,0,.08v0a.13.13,0,0,1,0,.06C127.9,41.34,128.81,42.14,130,42.79Z"/><path class="cls-7" d="M151.76,46.88a20.67,20.67,0,0,1-3.65.36,13.72,13.72,0,0,1-3.54-.24s-3.62-.75-4-.9-2-.63-2-.63-3.15-1.32-4-1.11c0,0-7-1.8-6.48-4.24s4.9-1.89,6.29-1,1.18,1,1.87,1.16a11.55,11.55,0,0,0,2.09.33c.66,0,3.61.46,3.61.46a13.56,13.56,0,0,0,3.74-.34c1.43-.44,1.71,0,1.71,0Z"/><path class="cls-5" d="M146.57,40.55h0a.42.42,0,0,0,0,.16,17.56,17.56,0,0,0,1.9,2.58,5.18,5.18,0,0,0,.26.65,9.45,9.45,0,0,0,.77,1.3A16.91,16.91,0,0,0,150.93,47h0l.2.13a1.67,1.67,0,0,0,.68.24h.06l.09,0,.12,0c.21-.06.41-.13.62-.21l.12-.05a5.89,5.89,0,0,0,.58-.24l.12-.06.58-.29.2-.11c.21-.11.4-.23.6-.35l.6-.41c.15-.28.27-.52.33-.65a1.65,1.65,0,0,0,.12-.85V44c0-.16,0-.27,0-.27a3.58,3.58,0,0,0,.29-.46.5.5,0,0,0,.08-.26.49.49,0,0,1,0-.12,2.78,2.78,0,0,1,.53-.88,3,3,0,0,0,.17-1.38c0-.29,0-.51,0-.51a.16.16,0,0,0,.07-.09,2.15,2.15,0,0,0,.12-.5.22.22,0,0,1,0-.08c.05-.34.07-.68.07-.68a2.66,2.66,0,0,0,.93-1.57v-.08a4.49,4.49,0,0,0,.09-1V36a13.2,13.2,0,0,0-.28-2.22.31.31,0,0,1,0-.08l-.06-.11a1.21,1.21,0,0,1-.17-.5c0-.16-.06-.33-.08-.49s0-.29,0-.41c0-.35,0-.62,0-.62l.14-.68a5.25,5.25,0,0,0,.09-.55.22.22,0,0,1,0-.08,7.06,7.06,0,0,0,0-1,.17.17,0,0,0,0-.07,6.31,6.31,0,0,0-.6-2.26l0-.07a2.69,2.69,0,0,0-.16-.29,2.25,2.25,0,0,0-.12-.21,6.45,6.45,0,0,0-.37-.54l-.06-.07a6.32,6.32,0,0,0-.76-.79,3.4,3.4,0,0,0-2.06-.94c-2.72-.1-4.25,4.72-4.5,5.56a.63.63,0,0,1,0,.13s-1.1,1.1-.78,1.59a.91.91,0,0,1,.12.35,6.44,6.44,0,0,1-.17,1.72s-.09.3-.35,1l-.08.21a4.22,4.22,0,0,0-.11,1.85c.09.64.3,1.21.65,1.35.7.3.51.59.35.84a2.61,2.61,0,0,0-.24.54c-.1.28-.2.56-.23.68l0,0-.3-.08c-.13,0-.26,0-.29.11s-.09.13-.2.2A5.78,5.78,0,0,1,146.57,40.55Z"/><path class="cls-4" d="M146.73,40.55h0a.53.53,0,0,0,0,.17,18.13,18.13,0,0,0,1.9,2.58,5.18,5.18,0,0,0,.26.65,9.36,9.36,0,0,0,.61,1.06,17.25,17.25,0,0,0,1.53,2l0,0,.17.11a2,2,0,0,0,.6.25l.09,0,.13,0,.61-.22.13,0,.58-.25.12-.06a6.27,6.27,0,0,0,.58-.29l.2-.11.59-.35c.21-.13.41-.27.61-.41l.26-.2.23-.45a1.63,1.63,0,0,0,.12-.84V44c0-.16,0-.26,0-.26l.14-.19.12-.2a.81.81,0,0,0,.12-.34v0s0-.05,0-.07A2.55,2.55,0,0,1,157,42a2.82,2.82,0,0,0,.16-1.37v-.08c0-.25,0-.44,0-.44s.15-.3.19-.59v-.07c0-.34.07-.68.07-.68a2.59,2.59,0,0,0,.93-1.58,4.7,4.7,0,0,0,.09-1.18v0a12.85,12.85,0,0,0-.26-2.24l0-.07a.41.41,0,0,0-.07-.11,2.64,2.64,0,0,1-.23-.92V32.6c-.06-.51-.08-1-.08-1l.14-.68a5.25,5.25,0,0,0,.09-.55v-.08a5.07,5.07,0,0,0,0-1v-.07a6.13,6.13,0,0,0-.61-2.26l0-.07a5.09,5.09,0,0,0-.32-.56l-.12-.19-.21-.29-.06-.07a6.32,6.32,0,0,0-.76-.79,3.24,3.24,0,0,0-2.22-.94c-2.63.09-4.1,4.74-4.34,5.56a.63.63,0,0,1,0,.13s-1.1,1.1-.78,1.59a.76.76,0,0,1,.11.35,6.16,6.16,0,0,1-.16,1.72s-.09.3-.35,1c0,.06,0,.13-.08.21a4.38,4.38,0,0,0-.11,1.85c.09.64.31,1.21.65,1.35.7.3.51.59.35.84a2.61,2.61,0,0,0-.24.54c-.13.35-.24.72-.24.72l-.15,0a.71.71,0,0,0-.32,0,.16.16,0,0,0-.13.11c0,.09-.17.2-.36.3A7.12,7.12,0,0,1,146.73,40.55Z"/><path class="cls-5" d="M156.47,33.44c-.26,0-3-1.08-3.57-.72s-4.07,2.72-4.07,2.72,2.19-2.86,4.1-3.54S156.47,33.44,156.47,33.44Z"/><path class="cls-5" d="M152.52,37.77a15.2,15.2,0,0,0-3.17.93Z"/><path class="cls-5" d="M153,41.88a22.37,22.37,0,0,1,1,2.28,13.4,13.4,0,0,1-.93-1.33Z"/><path class="cls-5" d="M151.17,39.2s.81.29.72.31S151.2,39.32,151.17,39.2Z"/><path class="cls-5" d="M152,42.58c-.13.29-.57,1.14-.66,1S152,42.58,152,42.58Z"/><path class="cls-5" d="M141.89,20.18l.12.16s.92-.64,1.29-1,1.27,1.15,2,1.56a5.72,5.72,0,0,0,1.88.51s.92-.92.89-1.18.43-.35.46-.54a2.81,2.81,0,0,1,.4-1,2,2,0,0,0,.12-1l-.12,0a2.14,2.14,0,0,0-.43-.56,6.45,6.45,0,0,1-.62-1.54c-.21-.73-.64-.51-.64-.51,0,1.1-1.13,1.51-1.7,2s-1.45,1.64-2.16,1.88A4.59,4.59,0,0,0,141.89,20.18Z"/><path class="cls-4" d="M141.89,20l.12.16s.92-.64,1.3-1,1.26,1.16,2,1.57a5.75,5.75,0,0,0,1.89.51s.91-.92.89-1.19.43-.35.45-.54a2.71,2.71,0,0,1,.41-1,2.13,2.13,0,0,0,.12-1l-.12,0a2.38,2.38,0,0,0-.43-.56,6.05,6.05,0,0,1-.62-1.54c-.22-.73-.65-.51-.65-.51,0,1.1-1.13,1.51-1.7,2s-1.45,1.64-2.15,1.88A4.53,4.53,0,0,0,141.89,20Z"/><path class="cls-5" d="M141.82,20.24a4.36,4.36,0,0,0,1.42.47,1,1,0,0,0,.24,0h0a3.6,3.6,0,0,0-1.32-.61Z"/><path class="cls-5" d="M140.21,22.43s1-.39,1.33.2c0-.27,0-.49,0-.49l-1.09-.22-.23.46A.18.18,0,0,1,140.21,22.43Z"/><path class="cls-9" d="M143.48,20.69a4.39,4.39,0,0,0-1.77-.65c-.61.06-1.78.1-1.78.1a4.28,4.28,0,0,1,.35,1.11,10.53,10.53,0,0,0-.07,1.1s1.21-.47,1.42.41a6.26,6.26,0,0,1,1.1-1.28A3,3,0,0,0,143.48,20.69Z"/><path class="cls-5" d="M136.71,21.53a3.68,3.68,0,0,0,1.85-1.29c.27-.51.65.05,1,.24a3.41,3.41,0,0,0,1.58-.32c-.24-.16-.78-.62-.93-.73a11.17,11.17,0,0,1-.38-2.32c-.67-.35-1.4,2.83-1.4,2.83s-1.27.38-1.37.65a1,1,0,0,1-.26.26C136.65,21.22,136.57,21.53,136.71,21.53Z"/><path class="cls-4" d="M136.71,21.37a3.68,3.68,0,0,0,1.85-1.29c.27-.52.65.05,1,.24s.93-.12,1.4-.3c-.24-.16-.6-.64-.75-.75a11.17,11.17,0,0,1-.38-2.32c-.67-.35-1.4,2.83-1.4,2.83s-1.27.38-1.37.65a1,1,0,0,1-.26.26C136.65,21.06,136.57,21.37,136.71,21.37Z"/><path class="cls-12" d="M131.92,45,120.21,35.2a.6.6,0,0,0-.42-.14l-4.37.11s-.31.22.14.71l11,9.06a.67.67,0,0,0,.42.16l4.78.16a.17.17,0,0,0,.17-.16A.16.16,0,0,0,131.92,45Z"/><path class="cls-7" d="M126.25,43.77s-2.56,3.66-5.4.25-2-5.19-1.16-5.29S125.41,42.37,126.25,43.77Z"/><path class="cls-13" d="M21.15,39.74H23l1.58-8.93H22.72Zm9.47-3-2.6-6H26.26l-1.57,8.93h1.67l1-5.82L30,39.74h1.8l1.58-8.93H31.67Zm8.64-6.12a5,5,0,0,0-3.39,1.21,5.74,5.74,0,0,0-1.77,3.41,4.16,4.16,0,0,0,.57,3.4,3.6,3.6,0,0,0,3,1.22,5.22,5.22,0,0,0,2-.39c.66.5,1,.77,1.07.79a3,3,0,0,0,.73.34l.89-1.27a4.88,4.88,0,0,1-1.31-.76,5.39,5.39,0,0,0,1-1.3,6.39,6.39,0,0,0,.68-2,4.2,4.2,0,0,0-.56-3.41A3.49,3.49,0,0,0,39.26,30.66Zm1.64,4.62a5.06,5.06,0,0,1-.4,1.33,3.55,3.55,0,0,1-.7,1,4.93,4.93,0,0,0-1.54-.91l-.68,1a4,4,0,0,1,1,.56,2.48,2.48,0,0,1-.76.13,1.84,1.84,0,0,1-1.6-.78A3.15,3.15,0,0,1,36,35.28,4,4,0,0,1,37.06,33,2.71,2.71,0,0,1,39,32.2a1.91,1.91,0,0,1,1.65.77A3,3,0,0,1,40.9,35.28Zm8.5.47a9.51,9.51,0,0,1-.35,1.52,1.49,1.49,0,0,1-.6.77,2.07,2.07,0,0,1-1.21.31A1.69,1.69,0,0,1,46.1,38a1.15,1.15,0,0,1-.39-.88,9.86,9.86,0,0,1,.19-1.49l.86-4.84H45l-.84,4.77a11.05,11.05,0,0,0-.22,2.26,2,2,0,0,0,.33,1,2.12,2.12,0,0,0,.91.77,4.52,4.52,0,0,0,1.89.3,4.93,4.93,0,0,0,1.76-.27A3.53,3.53,0,0,0,50,38.9a3.09,3.09,0,0,0,.74-1.12,12.8,12.8,0,0,0,.55-2.28l.83-4.69H50.27Zm3,4h1.8l1.58-8.93H53.92Zm10.93-8.69a6,6,0,0,0-2-.24h-3.8l-1.58,8.93h1.81L58.34,36h.36a2.69,2.69,0,0,1,.89.1,1,1,0,0,1,.48.37,9.81,9.81,0,0,1,.72,1.31l1,1.94h2.16L63.12,38a8,8,0,0,0-.77-1.45,3.22,3.22,0,0,0-.83-.75A3.46,3.46,0,0,0,63.43,35a2.84,2.84,0,0,0,.88-1.66,2.28,2.28,0,0,0-.14-1.41A1.6,1.6,0,0,0,63.28,31.05Zm-.84,2.38a1.34,1.34,0,0,1-.31.67,1.18,1.18,0,0,1-.57.38,7.35,7.35,0,0,1-1.64.11H58.59l.4-2.27h1.4c.74,0,1.17,0,1.32,0a.89.89,0,0,1,.61.35A1,1,0,0,1,62.44,33.43Zm2.44,6.31h6.8l.26-1.5H67l.43-2.43h4.48l.27-1.51H67.64l.35-2h4.82l.27-1.51H66.46Zm17.74-3-2.6-6H78.27l-1.58,8.93h1.68l1-5.82L82,39.74h1.81l1.57-8.93H83.68Zm8.62-6.12a5.51,5.51,0,0,0-2,.35,4.48,4.48,0,0,0-1.29.81,5.27,5.27,0,0,0-1,1.22,6.5,6.5,0,0,0-.81,2.29,4.08,4.08,0,0,0,.58,3.35,3.55,3.55,0,0,0,3,1.22A4.91,4.91,0,0,0,93,38.67a5.68,5.68,0,0,0,1.77-3.38,4.13,4.13,0,0,0-.59-3.41A3.52,3.52,0,0,0,91.24,30.66Zm1.67,4.59a4.08,4.08,0,0,1-1.1,2.33,2.69,2.69,0,0,1-1.91.77,1.9,1.9,0,0,1-1.64-.78,3,3,0,0,1-.29-2.3A4,4,0,0,1,89.05,33,2.75,2.75,0,0,1,91,32.2a1.88,1.88,0,0,1,1.65.76A3,3,0,0,1,92.91,35.25ZM106,30.81l-2.47,6.24-.47-6.24h-2.14L98.21,37,98,30.81H96.1l.56,8.93h2l3-6.67.6,6.67h1.91l3.74-8.93Z"/></g></g></svg>